<?xml version="1.0" encoding="utf-8"?>
<!-- Generator: Adobe Illustrator 24.0.1, SVG Export Plug-In . SVG Version: 6.00 Build 0)  -->
<svg version="1.1" id="_圖層_2" xmlns="http://www.w3.org/2000/svg" xmlns:xlink="http://www.w3.org/1999/xlink" x="0px" y="0px"
	 viewBox="0 0 47.8 47.9" style="enable-background:new 0 0 47.8 47.9;" xml:space="preserve">
<style type="text/css">
	.st0{fill:#F3904C;}
</style>
<g id="_圖層_1">
	<g>
		<g>
			<g>
				<path class="st0" d="M25.7,16.9V6.5h-3.5v13.2c0,3.4-2.8,6.1-6.1,6.1S10,23,10,19.6V6.5H6.5v10.4c0,2.8,1.2,5.3,3.1,7.1
					c1.7,1.6,4,2.6,6.5,2.6c2.5,0,4.8-0.9,6.5-2.6C24.5,22.2,25.7,19.7,25.7,16.9z"/>
				<path class="st0" d="M22.2,16.9V6.5h3.5v13.2c0,3.4,2.8,6.1,6.1,6.1s6.1-2.8,6.1-6.1V6.5h3.5v10.4c0,2.8-1.2,5.3-3.1,7.1
					c-1.7,1.6-4,2.6-6.5,2.6s-4.8-0.9-6.5-2.6C23.4,22.2,22.2,19.7,22.2,16.9z"/>
			</g>
			<rect x="31.8" y="6.5" class="st0" width="9.6" height="0.8"/>
		</g>
		<g>
			<g>
				<path class="st0" d="M22.2,31v10.4h3.5V28.3c0-3.4,2.8-6.1,6.1-6.1s6.1,2.8,6.1,6.1v13.1h3.5V31c0-2.8-1.2-5.3-3.1-7.1
					c-1.7-1.6-4-2.6-6.5-2.6s-4.8,0.9-6.5,2.6C23.4,25.7,22.2,28.2,22.2,31z"/>
				<path class="st0" d="M25.7,31v10.4h-3.5V28.3c0-3.4-2.8-6.1-6.1-6.1s-6.1,2.8-6.1,6.1v13.1H6.5V31c0-2.8,1.2-5.3,3.1-7.1
					c1.7-1.6,4-2.6,6.5-2.6c2.5,0,4.8,0.9,6.5,2.6C24.5,25.7,25.7,28.2,25.7,31z"/>
			</g>
			<rect x="6.5" y="40.6" class="st0" width="9.6" height="0.8"/>
		</g>
	</g>
</g>
</svg>
